<mxfile host="app.diagrams.net" modified="2023-05-31T03:23:19.469Z" agent="Mozilla/5.0 (X11; Ubuntu; Linux x86_64; rv:109.0) Gecko/20100101 Firefox/113.0" etag="ZlKeyQ_z_9ss9Wry90sL" version="21.3.6" type="github">
  <diagram name="Page-1" id="M7DkWpAEA0SoGvppIu5o">
    <mxGraphModel dx="1362" dy="790" grid="1" gridSize="10" guides="1" tooltips="1" connect="1" arrows="1" fold="1" page="1" pageScale="1" pageWidth="850" pageHeight="1100" math="0" shadow="0">
      <root>
        <mxCell id="0" />
        <mxCell id="1" parent="0" />
        <mxCell id="xIDI6sqjgz8K7w1ugfOl-2" value="Dev" style="shape=umlActor;verticalLabelPosition=bottom;verticalAlign=top;html=1;outlineConnect=0;" vertex="1" parent="1">
          <mxGeometry x="10" y="300" width="30" height="60" as="geometry" />
        </mxCell>
        <mxCell id="xIDI6sqjgz8K7w1ugfOl-5" value="" style="verticalLabelPosition=bottom;html=1;verticalAlign=top;align=center;strokeColor=none;fillColor=#00BEF2;shape=mxgraph.azure.github_code;pointerEvents=1;" vertex="1" parent="1">
          <mxGeometry x="150" y="170" width="50" height="50" as="geometry" />
        </mxCell>
        <mxCell id="xIDI6sqjgz8K7w1ugfOl-6" value="Github" style="text;html=1;strokeColor=none;fillColor=none;align=center;verticalAlign=middle;whiteSpace=wrap;rounded=0;" vertex="1" parent="1">
          <mxGeometry x="145" y="220" width="60" height="30" as="geometry" />
        </mxCell>
        <mxCell id="xIDI6sqjgz8K7w1ugfOl-11" value="" style="whiteSpace=wrap;html=1;aspect=fixed;" vertex="1" parent="1">
          <mxGeometry x="310" y="80.5" width="170" height="170" as="geometry" />
        </mxCell>
        <mxCell id="xIDI6sqjgz8K7w1ugfOl-15" value="" style="endArrow=classic;html=1;rounded=0;entryX=1.04;entryY=0.06;entryDx=0;entryDy=0;entryPerimeter=0;exitX=-0.035;exitY=0.529;exitDx=0;exitDy=0;exitPerimeter=0;" edge="1" parent="1" source="xIDI6sqjgz8K7w1ugfOl-11" target="xIDI6sqjgz8K7w1ugfOl-5">
          <mxGeometry width="50" height="50" relative="1" as="geometry">
            <mxPoint x="260" y="260" as="sourcePoint" />
            <mxPoint x="160" y="310" as="targetPoint" />
          </mxGeometry>
        </mxCell>
        <mxCell id="xIDI6sqjgz8K7w1ugfOl-16" value="" style="endArrow=classic;html=1;rounded=0;entryX=-0.04;entryY=0.8;entryDx=0;entryDy=0;entryPerimeter=0;" edge="1" parent="1" source="xIDI6sqjgz8K7w1ugfOl-2" target="xIDI6sqjgz8K7w1ugfOl-5">
          <mxGeometry width="50" height="50" relative="1" as="geometry">
            <mxPoint x="160" y="440" as="sourcePoint" />
            <mxPoint x="90" y="360" as="targetPoint" />
          </mxGeometry>
        </mxCell>
        <mxCell id="xIDI6sqjgz8K7w1ugfOl-17" value="&lt;div&gt;Commit&lt;/div&gt;" style="text;html=1;strokeColor=none;fillColor=none;align=center;verticalAlign=middle;whiteSpace=wrap;rounded=0;rotation=-45;" vertex="1" parent="1">
          <mxGeometry x="70" y="270" width="50" height="20" as="geometry" />
        </mxCell>
        <mxCell id="xIDI6sqjgz8K7w1ugfOl-18" value="Pull" style="text;html=1;strokeColor=none;fillColor=none;align=center;verticalAlign=middle;whiteSpace=wrap;rounded=0;rotation=0;" vertex="1" parent="1">
          <mxGeometry x="240" y="175.5" width="30" height="20" as="geometry" />
        </mxCell>
        <mxCell id="xIDI6sqjgz8K7w1ugfOl-19" value="Jenkins" style="text;html=1;strokeColor=none;fillColor=none;align=center;verticalAlign=middle;whiteSpace=wrap;rounded=0;" vertex="1" parent="1">
          <mxGeometry x="365" y="250.5" width="60" height="30" as="geometry" />
        </mxCell>
        <mxCell id="xIDI6sqjgz8K7w1ugfOl-20" value="&lt;div&gt;Git Clone&lt;br&gt;&lt;/div&gt;&lt;div&gt;Docker Build&lt;/div&gt;" style="text;html=1;strokeColor=none;fillColor=none;align=center;verticalAlign=middle;whiteSpace=wrap;rounded=0;" vertex="1" parent="1">
          <mxGeometry x="355" y="135.5" width="80" height="60" as="geometry" />
        </mxCell>
        <mxCell id="xIDI6sqjgz8K7w1ugfOl-21" value="" style="endArrow=classic;html=1;rounded=0;exitX=1.024;exitY=0.541;exitDx=0;exitDy=0;exitPerimeter=0;entryX=-0.013;entryY=0.525;entryDx=0;entryDy=0;entryPerimeter=0;" edge="1" parent="1" source="xIDI6sqjgz8K7w1ugfOl-11" target="xIDI6sqjgz8K7w1ugfOl-22">
          <mxGeometry width="50" height="50" relative="1" as="geometry">
            <mxPoint x="460" y="260" as="sourcePoint" />
            <mxPoint x="510" y="210" as="targetPoint" />
          </mxGeometry>
        </mxCell>
        <mxCell id="xIDI6sqjgz8K7w1ugfOl-22" value="" style="image;sketch=0;aspect=fixed;html=1;points=[];align=center;fontSize=12;image=img/lib/mscae/Docker.svg;" vertex="1" parent="1">
          <mxGeometry x="680" y="140" width="74.39" height="61" as="geometry" />
        </mxCell>
        <mxCell id="xIDI6sqjgz8K7w1ugfOl-27" value="&lt;div&gt;Push&lt;/div&gt;" style="text;html=1;strokeColor=none;fillColor=none;align=center;verticalAlign=middle;whiteSpace=wrap;rounded=0;" vertex="1" parent="1">
          <mxGeometry x="550" y="171" width="60" height="30" as="geometry" />
        </mxCell>
        <mxCell id="xIDI6sqjgz8K7w1ugfOl-28" value="Docker Hub" style="text;html=1;strokeColor=none;fillColor=none;align=center;verticalAlign=middle;whiteSpace=wrap;rounded=0;" vertex="1" parent="1">
          <mxGeometry x="677.2" y="201" width="80" height="30" as="geometry" />
        </mxCell>
      </root>
    </mxGraphModel>
  </diagram>
</mxfile>
